<?xml version="1.0" encoding="iso-8859-1"?>
<!-- Uploaded to: SVG Repo, www.svgrepo.com, Generator: SVG Repo Mixer Tools -->
<svg fill="#000000" height="800px" width="800px" version="1.1" id="Layer_1" xmlns="http://www.w3.org/2000/svg" xmlns:xlink="http://www.w3.org/1999/xlink" 
	 viewBox="0 0 511.999 511.999" xml:space="preserve">
<g>
	<g>
		<path d="M505.574,412.991c-7.711-6.607-19.317-5.708-25.92,2.003c-12.02,14.032-29.509,22.08-47.986,22.08h-9.867l12.966-341.139
			c0.58-15.258-4.933-29.719-15.522-40.719c-10.59-11-24.83-17.057-40.099-17.057H132.853c-15.269,0-29.509,6.058-40.099,17.057
			c-10.59,10.999-16.102,25.463-15.522,40.72l12.965,341.139H80.33c-18.477,0-35.968-8.048-47.986-22.08
			c-6.607-7.711-18.207-8.607-25.92-2.002c-7.711,6.604-8.607,18.209-2.004,25.92c19.014,22.198,46.682,34.928,75.91,34.928h351.338
			c29.229,0,56.897-12.731,75.91-34.928C514.182,431.201,513.285,419.596,505.574,412.991z M385.008,437.075h-258.02l-9.884-260.077
			h277.788L385.008,437.075z M396.29,140.231H115.707l-1.737-45.692c-0.197-5.179,1.675-10.088,5.27-13.823
			c3.596-3.734,8.429-5.791,13.612-5.791h246.293c5.183,0,10.017,2.056,13.612,5.791c3.596,3.734,5.467,8.644,5.27,13.823
			L396.29,140.231z"/>
	</g>
</g>
</svg>